<?xml version="1.0" encoding="UTF-8"?>
<svg version="1.1" xmlns="http://www.w3.org/2000/svg" width="30" height="30">
<path d="M0 0 C9.24 0 18.48 0 28 0 C27.125 13.875 27.125 13.875 26 15 C24.23140807 15.09946453 22.45888549 15.13080217 20.6875 15.1328125 C19.61242187 15.13410156 18.53734375 15.13539062 17.4296875 15.13671875 C16.29789063 15.13285156 15.16609375 15.12898438 14 15.125 C12.86820313 15.12886719 11.73640625 15.13273437 10.5703125 15.13671875 C9.49523437 15.13542969 8.42015625 15.13414063 7.3125 15.1328125 C6.31863281 15.13168457 5.32476562 15.13055664 4.30078125 15.12939453 C2 15 2 15 1 14 C0.53355123 9.34127094 0.29472371 4.67347603 0 0 Z " fill="#E9E9E9" transform="translate(1,3)"/>
<path d="M0 0 C8.58 0 17.16 0 26 0 C26 2.31 26 4.62 26 7 C17.42 7 8.84 7 0 7 C0 4.69 0 2.38 0 0 Z " fill="#C7C7C7" transform="translate(2,19)"/>
<path d="" fill="#000000" transform="translate(0,0)"/>
<path d="" fill="#000000" transform="translate(0,0)"/>
<path d="" fill="#000000" transform="translate(0,0)"/>
<path d="" fill="#000000" transform="translate(0,0)"/>
<path d="" fill="#000000" transform="translate(0,0)"/>
<path d="" fill="#000000" transform="translate(0,0)"/>
</svg>
