<?xml version="1.0" encoding="UTF-8"?>
<svg version="1.1" xmlns="http://www.w3.org/2000/svg" width="30" height="30">
<path d="M0 0 C4.12686871 2.06343436 6.2439289 3.7561615 8 8 C8.66 8.33 9.32 8.66 10 9 C10.28521966 12.37826839 10.45764296 15.63305534 10 19 C7.5625 20.9375 7.5625 20.9375 5 22 C4.67 22.99 4.34 23.98 4 25 C3.154375 25.04898437 2.30875 25.09796875 1.4375 25.1484375 C-4.94709185 25.56924014 -10.85792595 26.19350763 -17 28 C-16.67 25.69 -16.34 23.38 -16 21 C-16.99 20.67 -17.98 20.34 -19 20 C-20.3216091 16.85063363 -19.91122583 14.28609202 -19.25 11 C-19.09015625 10.154375 -18.9303125 9.30875 -18.765625 8.4375 C-17.91557577 5.73122082 -16.91598096 4.08339677 -15 2 C-14.01 1.67 -13.02 1.34 -12 1 C-8.28986322 -0.85506839 -4.04907177 -0.45334699 0 0 Z " fill="#EEEEEE" transform="translate(20,2)"/>
<path d="" fill="#000000" transform="translate(0,0)"/>
<path d="" fill="#000000" transform="translate(0,0)"/>
<path d="" fill="#000000" transform="translate(0,0)"/>
<path d="" fill="#000000" transform="translate(0,0)"/>
<path d="" fill="#000000" transform="translate(0,0)"/>
<path d="" fill="#000000" transform="translate(0,0)"/>
<path d="" fill="#000000" transform="translate(0,0)"/>
<path d="" fill="#000000" transform="translate(0,0)"/>
<path d="" fill="#000000" transform="translate(0,0)"/>
<path d="" fill="#000000" transform="translate(0,0)"/>
<path d="" fill="#000000" transform="translate(0,0)"/>
<path d="" fill="#000000" transform="translate(0,0)"/>
<path d="" fill="#000000" transform="translate(0,0)"/>
<path d="" fill="#000000" transform="translate(0,0)"/>
<path d="" fill="#000000" transform="translate(0,0)"/>
<path d="" fill="#000000" transform="translate(0,0)"/>
<path d="" fill="#000000" transform="translate(0,0)"/>
<path d="" fill="#000000" transform="translate(0,0)"/>
</svg>
